<svg id="visual" viewBox="0 0 900 100" width="900" height="100" xmlns="http://www.w3.org/2000/svg" xmlns:xlink="http://www.w3.org/1999/xlink" version="1.1"><rect x="0" y="0" width="900" height="100" fill="#306076"></rect><path d="M0 66L18.8 65.5C37.7 65 75.3 64 112.8 61.8C150.3 59.7 187.7 56.3 225.2 56.5C262.7 56.7 300.3 60.3 337.8 63C375.3 65.7 412.7 67.3 450.2 64.7C487.7 62 525.3 55 562.8 53.7C600.3 52.3 637.7 56.7 675.2 57.3C712.7 58 750.3 55 787.8 56.5C825.3 58 862.7 64 881.3 67L900 70L900 101L881.3 101C862.7 101 825.3 101 787.8 101C750.3 101 712.7 101 675.2 101C637.7 101 600.3 101 562.8 101C525.3 101 487.7 101 450.2 101C412.7 101 375.3 101 337.8 101C300.3 101 262.7 101 225.2 101C187.7 101 150.3 101 112.8 101C75.3 101 37.7 101 18.8 101L0 101Z" fill="#306076"></path><path d="M0 73L18.8 72.7C37.7 72.3 75.3 71.7 112.8 69.3C150.3 67 187.7 63 225.2 60.8C262.7 58.7 300.3 58.3 337.8 60.5C375.3 62.7 412.7 67.3 450.2 68C487.7 68.7 525.3 65.3 562.8 63.5C600.3 61.7 637.7 61.3 675.2 63C712.7 64.7 750.3 68.3 787.8 69.3C825.3 70.3 862.7 68.7 881.3 67.8L900 67L900 101L881.3 101C862.7 101 825.3 101 787.8 101C750.3 101 712.7 101 675.2 101C637.7 101 600.3 101 562.8 101C525.3 101 487.7 101 450.2 101C412.7 101 375.3 101 337.8 101C300.3 101 262.7 101 225.2 101C187.7 101 150.3 101 112.8 101C75.3 101 37.7 101 18.8 101L0 101Z" fill="#306188"></path><path d="M0 59L18.8 60.7C37.7 62.3 75.3 65.7 112.8 68.5C150.3 71.3 187.7 73.7 225.2 72C262.7 70.3 300.3 64.7 337.8 64.8C375.3 65 412.7 71 450.2 73C487.7 75 525.3 73 562.8 70.2C600.3 67.3 637.7 63.7 675.2 64.3C712.7 65 750.3 70 787.8 71.7C825.3 73.3 862.7 71.7 881.3 70.8L900 70L900 101L881.3 101C862.7 101 825.3 101 787.8 101C750.3 101 712.7 101 675.2 101C637.7 101 600.3 101 562.8 101C525.3 101 487.7 101 450.2 101C412.7 101 375.3 101 337.8 101C300.3 101 262.7 101 225.2 101C187.7 101 150.3 101 112.8 101C75.3 101 37.7 101 18.8 101L0 101Z" fill="#475e96"></path><path d="M0 78L18.8 76.2C37.7 74.3 75.3 70.7 112.8 70C150.3 69.3 187.7 71.7 225.2 73.8C262.7 76 300.3 78 337.8 77.7C375.3 77.3 412.7 74.7 450.2 74.2C487.7 73.7 525.3 75.3 562.8 74.7C600.3 74 637.7 71 675.2 69.3C712.7 67.7 750.3 67.3 787.8 67.7C825.3 68 862.7 69 881.3 69.5L900 70L900 101L881.3 101C862.7 101 825.3 101 787.8 101C750.3 101 712.7 101 675.2 101C637.7 101 600.3 101 562.8 101C525.3 101 487.7 101 450.2 101C412.7 101 375.3 101 337.8 101C300.3 101 262.7 101 225.2 101C187.7 101 150.3 101 112.8 101C75.3 101 37.7 101 18.8 101L0 101Z" fill="#6a569a"></path><path d="M0 76L18.8 77C37.7 78 75.3 80 112.8 79.8C150.3 79.7 187.7 77.3 225.2 76.7C262.7 76 300.3 77 337.8 77.3C375.3 77.7 412.7 77.3 450.2 76.8C487.7 76.3 525.3 75.7 562.8 76.7C600.3 77.7 637.7 80.3 675.2 80.2C712.7 80 750.3 77 787.8 76.2C825.3 75.3 862.7 76.7 881.3 77.3L900 78L900 101L881.3 101C862.7 101 825.3 101 787.8 101C750.3 101 712.7 101 675.2 101C637.7 101 600.3 101 562.8 101C525.3 101 487.7 101 450.2 101C412.7 101 375.3 101 337.8 101C300.3 101 262.7 101 225.2 101C187.7 101 150.3 101 112.8 101C75.3 101 37.7 101 18.8 101L0 101Z" fill="#8f4992"></path><path d="M0 84L18.8 83C37.7 82 75.3 80 112.8 79.7C150.3 79.3 187.7 80.7 225.2 81.2C262.7 81.7 300.3 81.3 337.8 81.2C375.3 81 412.7 81 450.2 81.3C487.7 81.7 525.3 82.3 562.8 82.2C600.3 82 637.7 81 675.2 80C712.7 79 750.3 78 787.8 77.3C825.3 76.7 862.7 76.3 881.3 76.2L900 76L900 101L881.3 101C862.7 101 825.3 101 787.8 101C750.3 101 712.7 101 675.2 101C637.7 101 600.3 101 562.8 101C525.3 101 487.7 101 450.2 101C412.7 101 375.3 101 337.8 101C300.3 101 262.7 101 225.2 101C187.7 101 150.3 101 112.8 101C75.3 101 37.7 101 18.8 101L0 101Z" fill="#af377d"></path><path d="M0 85L18.8 85.5C37.7 86 75.3 87 112.8 86.7C150.3 86.3 187.7 84.7 225.2 83.7C262.7 82.7 300.3 82.3 337.8 83C375.3 83.7 412.7 85.3 450.2 86C487.7 86.7 525.3 86.3 562.8 86.5C600.3 86.7 637.7 87.3 675.2 86.8C712.7 86.3 750.3 84.7 787.8 84.5C825.3 84.3 862.7 85.7 881.3 86.3L900 87L900 101L881.3 101C862.7 101 825.3 101 787.8 101C750.3 101 712.7 101 675.2 101C637.7 101 600.3 101 562.8 101C525.3 101 487.7 101 450.2 101C412.7 101 375.3 101 337.8 101C300.3 101 262.7 101 225.2 101C187.7 101 150.3 101 112.8 101C75.3 101 37.7 101 18.8 101L0 101Z" fill="#c5265d"></path><path d="M0 91L18.8 90.8C37.7 90.7 75.3 90.3 112.8 90C150.3 89.7 187.7 89.3 225.2 89.2C262.7 89 300.3 89 337.8 89.3C375.3 89.7 412.7 90.3 450.2 90.2C487.7 90 525.3 89 562.8 89.3C600.3 89.7 637.7 91.3 675.2 91.3C712.7 91.3 750.3 89.7 787.8 89.7C825.3 89.7 862.7 91.3 881.3 92.2L900 93L900 101L881.3 101C862.7 101 825.3 101 787.8 101C750.3 101 712.7 101 675.2 101C637.7 101 600.3 101 562.8 101C525.3 101 487.7 101 450.2 101C412.7 101 375.3 101 337.8 101C300.3 101 262.7 101 225.2 101C187.7 101 150.3 101 112.8 101C75.3 101 37.7 101 18.8 101L0 101Z" fill="#cc2936"></path></svg>