<svg id="visual" viewBox="0 0 900 600" width="900" height="600" xmlns="http://www.w3.org/2000/svg" xmlns:xlink="http://www.w3.org/1999/xlink" version="1.1"><rect x="0" y="0" width="900" height="600" fill="#1eb6b6"></rect><path d="M0 503L21.5 505.2C43 507.3 86 511.7 128.8 512.8C171.7 514 214.3 512 257.2 513.8C300 515.7 343 521.3 385.8 520.7C428.7 520 471.3 513 514.2 504.8C557 496.7 600 487.3 642.8 482.8C685.7 478.3 728.3 478.7 771.2 482.3C814 486 857 493 878.5 496.5L900 500L900 601L878.5 601C857 601 814 601 771.2 601C728.3 601 685.7 601 642.8 601C600 601 557 601 514.2 601C471.3 601 428.7 601 385.8 601C343 601 300 601 257.2 601C214.3 601 171.7 601 128.8 601C86 601 43 601 21.5 601L0 601Z" fill="#69fae0"></path><path d="M0 511L21.5 508.5C43 506 86 501 128.8 500.2C171.7 499.3 214.3 502.7 257.2 505.3C300 508 343 510 385.8 515.3C428.7 520.7 471.3 529.3 514.2 528.5C557 527.7 600 517.3 642.8 513.2C685.7 509 728.3 511 771.2 511.3C814 511.7 857 510.3 878.5 509.7L900 509L900 601L878.5 601C857 601 814 601 771.2 601C728.3 601 685.7 601 642.8 601C600 601 557 601 514.2 601C471.3 601 428.7 601 385.8 601C343 601 300 601 257.2 601C214.3 601 171.7 601 128.8 601C86 601 43 601 21.5 601L0 601Z" fill="#3ad3d0"></path><path d="M0 541L21.5 540.3C43 539.7 86 538.3 128.8 536.8C171.7 535.3 214.3 533.7 257.2 534.7C300 535.7 343 539.3 385.8 536.5C428.7 533.7 471.3 524.3 514.2 520.7C557 517 600 519 642.8 521C685.7 523 728.3 525 771.2 528.7C814 532.3 857 537.7 878.5 540.3L900 543L900 601L878.5 601C857 601 814 601 771.2 601C728.3 601 685.7 601 642.8 601C600 601 557 601 514.2 601C471.3 601 428.7 601 385.8 601C343 601 300 601 257.2 601C214.3 601 171.7 601 128.8 601C86 601 43 601 21.5 601L0 601Z" fill="#10acba"></path><path d="M0 548L21.5 547C43 546 86 544 128.8 544.3C171.7 544.7 214.3 547.3 257.2 546.3C300 545.3 343 540.7 385.8 537.5C428.7 534.3 471.3 532.7 514.2 534.2C557 535.7 600 540.3 642.8 540.5C685.7 540.7 728.3 536.3 771.2 534C814 531.7 857 531.3 878.5 531.2L900 531L900 601L878.5 601C857 601 814 601 771.2 601C728.3 601 685.7 601 642.8 601C600 601 557 601 514.2 601C471.3 601 428.7 601 385.8 601C343 601 300 601 257.2 601C214.3 601 171.7 601 128.8 601C86 601 43 601 21.5 601L0 601Z" fill="#00869e"></path><path d="M0 568L21.5 568.3C43 568.7 86 569.3 128.8 569C171.7 568.7 214.3 567.3 257.2 563.7C300 560 343 554 385.8 554.5C428.7 555 471.3 562 514.2 565.2C557 568.3 600 567.7 642.8 564.2C685.7 560.7 728.3 554.3 771.2 553.7C814 553 857 558 878.5 560.5L900 563L900 601L878.5 601C857 601 814 601 771.2 601C728.3 601 685.7 601 642.8 601C600 601 557 601 514.2 601C471.3 601 428.7 601 385.8 601C343 601 300 601 257.2 601C214.3 601 171.7 601 128.8 601C86 601 43 601 21.5 601L0 601Z" fill="#00637f"></path><path d="M0 567L21.5 568.3C43 569.7 86 572.3 128.8 574.2C171.7 576 214.3 577 257.2 576C300 575 343 572 385.8 570.8C428.7 569.7 471.3 570.3 514.2 572.3C557 574.3 600 577.7 642.8 577.7C685.7 577.7 728.3 574.3 771.2 572C814 569.7 857 568.3 878.5 567.7L900 567L900 601L878.5 601C857 601 814 601 771.2 601C728.3 601 685.7 601 642.8 601C600 601 557 601 514.2 601C471.3 601 428.7 601 385.8 601C343 601 300 601 257.2 601C214.3 601 171.7 601 128.8 601C86 601 43 601 21.5 601L0 601Z" fill="#08415c"></path></svg>