<svg id="visual" viewBox="0 0 900 100" width="900" height="100" xmlns="http://www.w3.org/2000/svg" xmlns:xlink="http://www.w3.org/1999/xlink" version="1.1"><rect x="0" y="0" width="900" height="100" fill="#b4e7e7"></rect><path d="M0 48L18.8 51.7C37.7 55.3 75.3 62.7 112.8 64.7C150.3 66.7 187.7 63.3 225.2 62.7C262.7 62 300.3 64 337.8 62.8C375.3 61.7 412.7 57.3 450.2 57C487.7 56.7 525.3 60.3 562.8 60.5C600.3 60.7 637.7 57.3 675.2 54.5C712.7 51.7 750.3 49.3 787.8 51.5C825.3 53.7 862.7 60.3 881.3 63.7L900 67L900 101L881.3 101C862.7 101 825.3 101 787.8 101C750.3 101 712.7 101 675.2 101C637.7 101 600.3 101 562.8 101C525.3 101 487.7 101 450.2 101C412.7 101 375.3 101 337.8 101C300.3 101 262.7 101 225.2 101C187.7 101 150.3 101 112.8 101C75.3 101 37.7 101 18.8 101L0 101Z" fill="#69d7fa"></path><path d="M0 70L18.8 69.7C37.7 69.3 75.3 68.7 112.8 66.5C150.3 64.3 187.7 60.7 225.2 58.3C262.7 56 300.3 55 337.8 56C375.3 57 412.7 60 450.2 62.8C487.7 65.7 525.3 68.3 562.8 69.3C600.3 70.3 637.7 69.7 675.2 66.8C712.7 64 750.3 59 787.8 59.7C825.3 60.3 862.7 66.7 881.3 69.8L900 73L900 101L881.3 101C862.7 101 825.3 101 787.8 101C750.3 101 712.7 101 675.2 101C637.7 101 600.3 101 562.8 101C525.3 101 487.7 101 450.2 101C412.7 101 375.3 101 337.8 101C300.3 101 262.7 101 225.2 101C187.7 101 150.3 101 112.8 101C75.3 101 37.7 101 18.8 101L0 101Z" fill="#61c5e7"></path><path d="M0 70L18.8 69.8C37.7 69.7 75.3 69.3 112.8 69.5C150.3 69.7 187.7 70.3 225.2 69.5C262.7 68.7 300.3 66.3 337.8 64.3C375.3 62.3 412.7 60.7 450.2 61.3C487.7 62 525.3 65 562.8 66.7C600.3 68.3 637.7 68.7 675.2 67.3C712.7 66 750.3 63 787.8 62.5C825.3 62 862.7 64 881.3 65L900 66L900 101L881.3 101C862.7 101 825.3 101 787.8 101C750.3 101 712.7 101 675.2 101C637.7 101 600.3 101 562.8 101C525.3 101 487.7 101 450.2 101C412.7 101 375.3 101 337.8 101C300.3 101 262.7 101 225.2 101C187.7 101 150.3 101 112.8 101C75.3 101 37.7 101 18.8 101L0 101Z" fill="#58b3d3"></path><path d="M0 66L18.8 66.5C37.7 67 75.3 68 112.8 69.8C150.3 71.7 187.7 74.3 225.2 73.8C262.7 73.3 300.3 69.7 337.8 68.7C375.3 67.7 412.7 69.3 450.2 70.7C487.7 72 525.3 73 562.8 72.3C600.3 71.7 637.7 69.3 675.2 68C712.7 66.7 750.3 66.3 787.8 67.5C825.3 68.7 862.7 71.3 881.3 72.7L900 74L900 101L881.3 101C862.7 101 825.3 101 787.8 101C750.3 101 712.7 101 675.2 101C637.7 101 600.3 101 562.8 101C525.3 101 487.7 101 450.2 101C412.7 101 375.3 101 337.8 101C300.3 101 262.7 101 225.2 101C187.7 101 150.3 101 112.8 101C75.3 101 37.7 101 18.8 101L0 101Z" fill="#50a2c0"></path><path d="M0 75L18.8 76.2C37.7 77.3 75.3 79.7 112.8 79C150.3 78.3 187.7 74.7 225.2 72.8C262.7 71 300.3 71 337.8 72.5C375.3 74 412.7 77 450.2 78C487.7 79 525.3 78 562.8 76.5C600.3 75 637.7 73 675.2 72C712.7 71 750.3 71 787.8 72.3C825.3 73.7 862.7 76.3 881.3 77.7L900 79L900 101L881.3 101C862.7 101 825.3 101 787.8 101C750.3 101 712.7 101 675.2 101C637.7 101 600.3 101 562.8 101C525.3 101 487.7 101 450.2 101C412.7 101 375.3 101 337.8 101C300.3 101 262.7 101 225.2 101C187.7 101 150.3 101 112.8 101C75.3 101 37.7 101 18.8 101L0 101Z" fill="#4891ad"></path><path d="M0 80L18.8 80.7C37.7 81.3 75.3 82.7 112.8 83.5C150.3 84.3 187.7 84.7 225.2 84.8C262.7 85 300.3 85 337.8 85C375.3 85 412.7 85 450.2 84.3C487.7 83.7 525.3 82.3 562.8 81.3C600.3 80.3 637.7 79.7 675.2 80.5C712.7 81.3 750.3 83.7 787.8 84.7C825.3 85.7 862.7 85.3 881.3 85.2L900 85L900 101L881.3 101C862.7 101 825.3 101 787.8 101C750.3 101 712.7 101 675.2 101C637.7 101 600.3 101 562.8 101C525.3 101 487.7 101 450.2 101C412.7 101 375.3 101 337.8 101C300.3 101 262.7 101 225.2 101C187.7 101 150.3 101 112.8 101C75.3 101 37.7 101 18.8 101L0 101Z" fill="#40809b"></path><path d="M0 86L18.8 86.3C37.7 86.7 75.3 87.3 112.8 87.5C150.3 87.7 187.7 87.3 225.2 87C262.7 86.7 300.3 86.3 337.8 86.2C375.3 86 412.7 86 450.2 85.3C487.7 84.7 525.3 83.3 562.8 83.8C600.3 84.3 637.7 86.7 675.2 86.7C712.7 86.7 750.3 84.3 787.8 83.7C825.3 83 862.7 84 881.3 84.5L900 85L900 101L881.3 101C862.7 101 825.3 101 787.8 101C750.3 101 712.7 101 675.2 101C637.7 101 600.3 101 562.8 101C525.3 101 487.7 101 450.2 101C412.7 101 375.3 101 337.8 101C300.3 101 262.7 101 225.2 101C187.7 101 150.3 101 112.8 101C75.3 101 37.7 101 18.8 101L0 101Z" fill="#387088"></path><path d="M0 91L18.8 90.8C37.7 90.7 75.3 90.3 112.8 90.3C150.3 90.3 187.7 90.7 225.2 90.5C262.7 90.3 300.3 89.7 337.8 89.3C375.3 89 412.7 89 450.2 89.2C487.7 89.3 525.3 89.7 562.8 89.7C600.3 89.7 637.7 89.3 675.2 89.2C712.7 89 750.3 89 787.8 89.3C825.3 89.7 862.7 90.3 881.3 90.7L900 91L900 101L881.3 101C862.7 101 825.3 101 787.8 101C750.3 101 712.7 101 675.2 101C637.7 101 600.3 101 562.8 101C525.3 101 487.7 101 450.2 101C412.7 101 375.3 101 337.8 101C300.3 101 262.7 101 225.2 101C187.7 101 150.3 101 112.8 101C75.3 101 37.7 101 18.8 101L0 101Z" fill="#306076"></path></svg>