<svg id="visual" viewBox="0 0 900 100" width="900" height="100" xmlns="http://www.w3.org/2000/svg" xmlns:xlink="http://www.w3.org/1999/xlink" version="1.1"><rect x="0" y="0" width="900" height="100" fill="#cc2936"></rect><path d="M0 60L129 58L257 68L386 66L514 61L643 65L771 60L900 72L900 101L771 101L643 101L514 101L386 101L257 101L129 101L0 101Z" fill="#0a9ff5"></path><path d="M0 65L129 65L257 68L386 78L514 71L643 69L771 66L900 66L900 101L771 101L643 101L514 101L386 101L257 101L129 101L0 101Z" fill="#21b5f2"></path><path d="M0 83L129 77L257 72L386 77L514 78L643 75L771 73L900 74L900 101L771 101L643 101L514 101L386 101L257 101L129 101L0 101Z" fill="#57c8ec"></path><path d="M0 87L129 81L257 83L386 83L514 82L643 86L771 88L900 87L900 101L771 101L643 101L514 101L386 101L257 101L129 101L0 101Z" fill="#87d8e7"></path><path d="M0 92L129 92L257 91L386 92L514 89L643 88L771 90L900 87L900 101L771 101L643 101L514 101L386 101L257 101L129 101L0 101Z" fill="#b4e7e7"></path></svg>